<svg height="36" viewBox="0 0 36 36" width="36" xmlns="http://www.w3.org/2000/svg" xmlns:xlink="http://www.w3.org/1999/xlink"><linearGradient id="a" x1="50%" x2="50%" y1="0%" y2="99.768%"><stop offset="0" stop-color="#4985ff"/><stop offset="1" stop-color="#1d5cff"/></linearGradient><g fill="none" fill-rule="evenodd"><path d="m15.055223 0h5.889554c4.9554066 0 6.9607417.55695367 8.9162972 1.60279622 1.9555556 1.04584256 3.490287 2.580574 4.5361296 4.53612956 1.0458425 1.95555555 1.6027962 3.96089062 1.6027962 8.91629722v5.889554c0 4.9554066-.5569537 6.9607417-1.6027962 8.9162972-1.0458426 1.9555556-2.580574 3.490287-4.5361296 4.5361296-1.9555555 1.0458425-3.9608906 1.6027962-8.9162972 1.6027962h-5.889554c-4.9554066 0-6.96074167-.5569537-8.91629722-1.6027962-1.95555556-1.0458426-3.490287-2.580574-4.53612956-4.5361296-1.04584255-1.9555555-1.60279622-3.9608906-1.60279622-8.9162972v-5.889554c0-4.9554066.55695367-6.96074167 1.60279622-8.91629722 1.04584256-1.95555556 2.580574-3.490287 4.53612956-4.53612956 1.95555555-1.04584255 3.96089062-1.60279622 8.91629722-1.60279622z" fill="url(#a)" fill-rule="nonzero"/><g fill="#fff"><g transform="translate(9.5 4.5)"><path d="m8.5 13.75c-1.98779687 0-4 .5151406-4 1.5v2.5c0 .9848594 2.01220313 1.5 4 1.5 1.9877969 0 4-.5151406 4-1.5v-2.5c0-.9848594-2.0122031-1.5-4-1.5zm0 .5c2.1364687 0 3.5.5922812 3.5 1s-1.3635313 1-3.5 1c-2.13646875 0-3.5-.5922812-3.5-1s1.36353125-1 3.5-1zm0 4.5c-2.13646875 0-3.5-.5922812-3.5-1v-1.7359687c.71970313.4850468 2.1146875.7359687 3.5.7359687s2.7802969-.2509219 3.5-.7359687v1.7359687c0 .4077188-1.3635313 1-3.5 1z" fill-rule="nonzero" stroke="#fff" stroke-width=".5"/><path d="m14.5 0c1.35731 0 2.4619829 1.0816677 2.4990396 2.43002379l.0009604.06997621v11.5c0 .2761424-.2238576.5-.5.5s-.5-.2238576-.5-.5v-11.5c0-.80959924-.6413937-1.46939294-1.4437654-1.49896538l-.0562346-.00103462h-12c-.80959924 0-1.46939294.64139372-1.49896538 1.44376543l-.00103462.05623457v11.5c0 .2761424-.22385762.5-.5.5-.27614237 0-.5-.2238576-.5-.5v-11.5c0-1.35730998 1.0816677-2.46198293 2.43002379-2.49903955l.06997621-.00096045z" fill-rule="nonzero"/><path d="m5.67157288 3.46446609 2.8284466 2.82855339 2.82840762-2.82855339c.1735664-.17356635.4429908-.1928515.6378589-.05785545l.0692479.05785545c.1952622.19526215.1952622.51184464 0 .70710679l-2.82851442 2.8284466 2.82851442 2.82840764c.1952622.19526218.1952622.51184468 0 .70710678-.1952621.1952622-.5118446.1952622-.7071068 0l-2.82840762-2.82851442-2.8284466 2.82851442c-.17356636.1735664-.44299076.1928515-.6378589.0578555l-.06924789-.0578555c-.19526214-.1952621-.19526214-.5118446 0-.70710678l2.82855339-2.82840764-2.82855339-2.8284466c-.19526214-.19526215-.19526214-.51184464 0-.70710679.19526215-.19526214.51184464-.19526214.70710679 0z"/></g><path d="m16.0998438 17.1705332c-.7885625-.3954975-1.7621876-.0790933-2.1704063.7011829l-3.7321875 7.6282188h-5.69725c-.82715625 0-1.5.6728394-1.5 1.4999903v2.4999838c0 .8271509.67284375 1.4999903 1.5 1.4999903h5.26415625c.95312495 0 1.80956245-.5293091 2.23584375-1.3818348l4.828375-10.261983c.401375-.8027448.0746875-1.7832072-.7285312-2.1855483zm-10.5998438 12.8293726h-1c-.275875 0-.5-.2246236-.5-.4999968v-2.4999805c0-.2753765.224125-.5.5-.5h1zm10.4338438-11.0911027-4.8283751 10.2620143c-.2558437.5117154-.7695312.8290884-1.34131245.8290884h-3.26415625v-3.4999773h4c.1860312 0 .3564375-.1034994.442875-.2675608l3.8723125-7.8968108c.1586875-.2997793.5351562-.422841.8374062-.2704983.3100625.1552803.4365313.5341841.2812501.8437445z" fill-rule="nonzero" transform="matrix(-1 0 0 1 20 0)"/><path d="m32.0998438 17.1705332c-.7885625-.3954975-1.7621876-.0790933-2.1704063.7011829l-3.7321875 7.6282188h-5.69725c-.8271562 0-1.5.6728394-1.5 1.4999903v2.4999838c0 .8271509.6728438 1.4999903 1.5 1.4999903h5.2641563c.953125 0 1.8095625-.5293091 2.2358437-1.3818348l4.828375-10.261983c.401375-.8027448.0746875-1.7832072-.7285312-2.1855483zm-10.5998438 12.8293726h-1c-.275875 0-.5-.2246236-.5-.4999968v-2.4999805c0-.2753765.224125-.5.5-.5h1zm10.4338437-11.0911027-4.8283749 10.2620143c-.2558438.5117154-.7695313.8290884-1.3413125.8290884h-3.2641563v-3.4999773h4c.1860313 0 .3564375-.1034994.442875-.2675608l3.8723125-7.8968108c.1586875-.2997793.5351563-.422841.8374063-.2704983.3100625.1552803.4365312.5341841.2812499.8437445z" fill-rule="nonzero"/></g></g></svg>