<svg height="19" viewBox="0 0 23 19" width="23" xmlns="http://www.w3.org/2000/svg"><path d="m19 11c.5522847 0 1 .4477153 1 1v2h2c.5522847 0 1 .4477153 1 1s-.4477153 1-1 1h-2v2c0 .5522847-.4477153 1-1 1s-1-.4477153-1-1v-2h-2c-.5522847 0-1-.4477153-1-1s.4477153-1 1-1h2v-2c0-.5522847.4477153-1 1-1zm-7 3c.5522847 0 1 .4477153 1 1s-.4477153 1-1 1h-11c-.55228475 0-1-.4477153-1-1s.44771525-1 1-1zm7-7c.5522847 0 1 .44771525 1 1s-.4477153 1-1 1h-18c-.55228475 0-1-.44771525-1-1s.44771525-1 1-1zm0-7c.5522847 0 1 .44771525 1 1s-.4477153 1-1 1h-18c-.55228475 0-1-.44771525-1-1s.44771525-1 1-1z" fill="#c1c7cd" fill-rule="evenodd"/></svg>