<?xml version="1.0" encoding="UTF-8"?>
<svg width="32px" height="32px" viewBox="0 0 32 32" version="1.1" xmlns="http://www.w3.org/2000/svg" xmlns:xlink="http://www.w3.org/1999/xlink">
    <title>icoEdit</title>
    <g id="1.-HL---video---mobil" stroke="none" stroke-width="1" fill="none" fill-rule="evenodd">
        <g id="VL---playlist" transform="translate(-56.000000, -405.000000)" fill-rule="nonzero">
            <g id="Group-2" transform="translate(0.000000, 341.000000)">
                <g id="icoEdit" transform="translate(56.000000, 64.000000)">
                    <rect id="Rectangle" stroke="#1D5CFF" stroke-width="2" x="1" y="1" width="30" height="30" rx="8"></rect>
                    <path d="M23.4142036,9.7573125 L22.2426109,8.58575 C21.4616116,7.80475 20.1952689,7.80475 19.4142071,8.58575 L18.031677,9.96925 L17.239209,9.17675 C16.5587408,8.49621875 15.445148,8.49621875 14.7645861,9.17675 L11.4716202,12.4697188 C11.1786517,12.7626875 11.1786517,13.2373125 11.4716202,13.5302812 C11.6181201,13.67675 11.8095262,13.75 12.001901,13.75 C12.1942759,13.75 12.3856819,13.67675 12.5321818,13.5302812 L15.8251477,10.2373125 C15.9228039,10.1396562 16.0809912,10.1396562 16.1786474,10.2373125 L16.9711467,11.0297812 L10.9375269,17.063125 C9.50143443,18.4991562 8.00484198,21.1370312 8.00484198,23.1679688 C7.95406077,23.6171875 8.30952922,24 8.75093508,24 C8.92671618,24 12.2196821,23.78125 14.9384297,21.0625 L23.4142036,12.58575 C24.1952655,11.80475 24.1952655,10.5384062 23.4142036,9.7573125 Z M13.8759306,20.0039063 C12.7196816,21.1601563 11.2509329,21.96875 9.66499679,22.3359375 C10.032184,20.75 10.840777,19.28125 11.997026,18.125 L18.0004896,12.1215313 L19.8793942,14.0004375 L13.8759306,20.0039063 Z" id="Shape" fill="#1D5CFF"></path>
                </g>
            </g>
        </g>
    </g>
</svg>