<?xml version="1.0" encoding="UTF-8"?>
<svg width="36px" height="36px" viewBox="0 0 36 36" version="1.1" xmlns="http://www.w3.org/2000/svg" xmlns:xlink="http://www.w3.org/1999/xlink">
    <title>icoFaceoff_disabled</title>
    <g id="1.-HL---video---mobil" stroke="none" stroke-width="1" fill="none" fill-rule="evenodd">
        <g id="Komponenty" transform="translate(-113.000000, -466.000000)" fill-rule="nonzero">
            <g id="icoFaceoff_disabled" transform="translate(113.000000, 466.000000)">
                <path d="M15.055223,-5.61235357e-16 L20.944777,5.61235357e-16 C25.9001836,-3.49058064e-16 27.9055187,0.556953667 29.8610742,1.60279622 C31.8166298,2.64863878 33.3513612,4.18337022 34.3972038,6.13892578 C35.4430463,8.09448133 36,10.0998164 36,15.055223 L36,20.944777 C36,25.9001836 35.4430463,27.9055187 34.3972038,29.8610742 C33.3513612,31.8166298 31.8166298,33.3513612 29.8610742,34.3972038 C27.9055187,35.4430463 25.9001836,36 20.944777,36 L15.055223,36 C10.0998164,36 8.09448133,35.4430463 6.13892578,34.3972038 C4.18337022,33.3513612 2.64863878,31.8166298 1.60279622,29.8610742 C0.556953667,27.9055187 2.32705376e-16,25.9001836 -3.74156905e-16,20.944777 L3.74156905e-16,15.055223 C-2.32705376e-16,10.0998164 0.556953667,8.09448133 1.60279622,6.13892578 C2.64863878,4.18337022 4.18337022,2.64863878 6.13892578,1.60279622 C8.09448133,0.556953667 10.0998164,3.49058064e-16 15.055223,-5.61235357e-16 Z" id="BGicon" fill="#C1C7CD"></path>
                <g id="hockey-sticks" transform="translate(8.000000, 10.000000)" fill="#FFFFFF">
                    <path d="M7.08265625,6.72368514 C7.169375,6.89849651 7.343375,7.00005835 7.52459375,7.00005835 C7.5988125,7.00005835 7.6739375,6.98346471 7.7448125,6.94730869 C7.98865625,6.8233095 8.08746875,6.52349894 7.9655,6.27643804 L5.0523125,1.90877886 C4.8990625,1.59921837 5.023875,1.22031457 5.32890625,1.06503433 C5.62825,0.91562905 6.00025,1.03378453 6.156375,1.33653257 L8.41996875,4.26570108 C8.54625,4.5098245 8.846,4.60260515 9.086,4.47663721 C9.32746875,4.3477318 9.42096875,4.04598375 9.2941875,3.80086034 L7.03059375,0.872660579 C6.62775,0.0914156442 5.66625,-0.224988554 4.8875,0.170508881 C4.0956875,0.572850023 3.7733125,1.55331242 4.1694375,2.35605721 L7.08265625,6.72368514 Z M18.5,10.5000357 L12.5,10.5000357 C12.223625,10.5000357 12,10.7236592 12,11.0000357 C12,11.2764056 12.223625,11.5000357 12.5,11.5000357 L16.5,11.5000357 L16.5,15.0000065 L13.2358438,15.0000065 C12.6640625,15.0000065 12.150375,14.6826335 11.8945313,14.1709181 L11.5634688,13.5087974 C11.4399375,13.2627052 11.1396563,13.1611434 10.8925625,13.2851739 C10.6454688,13.4092043 10.5454063,13.7089836 10.6689375,13.9560758 L11,14.6181652 C11.4262813,15.4706909 12.2827188,16 13.2358438,16 L18.5,16 C19.3271563,16 20,15.3271606 20,14.5000097 L20,12.0000357 C20,11.172875 19.3271563,10.5000357 18.5,10.5000357 Z M19,14.5000097 C19,14.7753829 18.775875,15.0000065 18.5,15.0000065 L17.5,15.0000065 L17.5,11.5000292 L18.5,11.5000292 C18.775875,11.5000292 19,11.7246527 19,12.0000292 L19,14.5000097 Z M15.0998437,0.170633881 C14.3112812,-0.224863555 13.3376562,0.0915406434 12.9294375,0.871816834 L7.19725,10.5000357 L1.5,10.5000357 C0.67284375,10.5000357 0,11.172875 0,12.0000259 L0,14.5000097 C0,15.3271606 0.67284375,16 1.5,16 L6.76415625,16 C7.71728125,16 8.57371875,15.4706909 9,14.6181652 L15.828375,2.35618221 C16.22975,1.55343742 15.9030625,0.572975022 15.0998437,0.170633881 Z M2.5,15.0000065 L1.5,15.0000065 C1.224125,15.0000065 1,14.7753829 1,14.5000097 L1,12.0000292 C1,11.7246527 1.224125,11.5000292 1.5,11.5000292 L2.5,11.5000292 L2.5,15.0000065 Z M14.9338437,1.90890386 L8.10546875,14.1709181 C7.849625,14.6826335 7.3359375,15.0000065 6.76415625,15.0000065 L3.5,15.0000065 L3.5,11.5000292 L7.5,11.5000292 C7.68603125,11.5000292 7.8564375,11.3965298 7.942875,11.2324684 L13.8151875,1.33565758 C13.973875,1.03587827 14.3503437,0.912816569 14.6525937,1.06515933 C14.9626562,1.22043957 15.089125,1.59934337 14.9338437,1.90890386 Z" id="Shape"></path>
                </g>
            </g>
        </g>
    </g>
</svg>