<svg height="36" viewBox="0 0 36 36" width="36" xmlns="http://www.w3.org/2000/svg"><g fill="none"><path d="m15.055223 0h5.889554c4.9554066 0 6.9607417.55695367 8.9162972 1.60279622 1.9555556 1.04584256 3.490287 2.580574 4.5361296 4.53612956 1.0458425 1.95555555 1.6027962 3.96089062 1.6027962 8.91629722v5.889554c0 4.9554066-.5569537 6.9607417-1.6027962 8.9162972-1.0458426 1.9555556-2.580574 3.490287-4.5361296 4.5361296-1.9555555 1.0458425-3.9608906 1.6027962-8.9162972 1.6027962h-5.889554c-4.9554066 0-6.96074167-.5569537-8.91629722-1.6027962-1.95555556-1.0458426-3.490287-2.580574-4.53612956-4.5361296-1.04584255-1.9555555-1.60279622-3.9608906-1.60279622-8.9162972v-5.889554c0-4.9554066.55695367-6.96074167 1.60279622-8.91629722 1.04584256-1.95555556 2.580574-3.490287 4.53612956-4.53612956 1.95555555-1.04584255 3.96089062-1.60279622 8.91629722-1.60279622z" fill="#c1c7cd"/><path d="m24.5 13.0007441c.078125 0 .1523438-.0195312.2226563-.0546874l2-.9998723c.25-.1210934.3476562-.4217489.2265625-.667842-.125-.2499993-.4257813-.3476553-.671875-.2265619l-2 .9997474c-.2109375.1054684-.3203125.3398428-.265625.5624985.0546875.2265619.2578125.3867177.4882812.3867177zm-15.22265625-1.0545597 1.99999995.9998723c.2460938.124906.546875.0234375.671875-.2226556.1210938-.2460931.0234375-.5468736-.2265625-.6718732l-1.99999995-.9997474c-.24609375-.1210934-.546875-.0234374-.671875.2265619-.12109375.2460931-.0234375.5467486.2265625.667842zm18.22265625 4.053958h-2c-.2773437 0-.5.2226556-.5.4998736 0 .277343.2226563.4999987.5.4999987h2c.2773438 0 .5-.2226557.5-.4999987 0-.277218-.2226562-.4998736-.5-.4998736zm-17 0h-2c-.27734375 0-.5.2226556-.5.4998736 0 .277343.22265625.4999987.5.4999987h2c.2773437 0 .5-.2226557.5-.4999987 0-.277218-.2226563-.4998736-.5-.4998736zm13.5 5.999859h-12c-.55225 0-1 .4477488-1 1v1c0 .5522432.44775 1 1 1h12c.5523125 0 1-.4477568 1-1v-1c0-.5522512-.4476875-1-1-1zm0 1.9999973h-12v-1h12zm-11.375-2.9999946c.2521875 0 .4649063-.1877495.4961563-.4379989l.656-5.2480173c.0938125-.750748.7319375-1.3139626 1.4884687-1.3139626h5.46875c.7565313 0 1.3946563.5632146 1.4884688 1.3139626l.656 5.2480173c.03125.2502494.2439687.4379989.4961562.4379989.3007188 0 .5334375-.2636868.4960938-.5619985l-.6565-5.2487673c-.1565-1.2507467-1.2197188-2.189213-2.4802188-2.189213h-5.46875c-1.2605 0-2.3237187.9384663-2.4802187 2.189213l-.6565 5.2487673c-.0373438.2983117.195375.5619985.4960937.5619985zm2.380875-5.574204-.75 4.9999867c-.0410313.2734368.1464687.5273424.4199062.5683423.0254063.0039375.0498125.005875.0751875.005875.2431875 0 .4560625-.1777496.4931875-.4257801l.75-4.9999868c.041-.2734367-.1465-.5273423-.4199375-.5683422-.2695312-.0439686-.5273437.1454996-.5683437.4199051z" fill="#fff"/></g></svg>