<?xml version="1.0" encoding="UTF-8"?>
<svg width="36px" height="36px" viewBox="0 0 36 36" version="1.1" xmlns="http://www.w3.org/2000/svg" xmlns:xlink="http://www.w3.org/1999/xlink">
    <title>icoGaolAssists_disabled</title>
    <g id="1.-HL---video---mobil" stroke="none" stroke-width="1" fill="none" fill-rule="evenodd">
        <g id="Komponenty" transform="translate(-113.000000, -132.000000)" fill-rule="nonzero">
            <g id="icoGaolAssists_disabled" transform="translate(113.000000, 132.000000)">
                <path d="M15.055223,-5.61235357e-16 L20.944777,5.61235357e-16 C25.9001836,-3.49058064e-16 27.9055187,0.556953667 29.8610742,1.60279622 C31.8166298,2.64863878 33.3513612,4.18337022 34.3972038,6.13892578 C35.4430463,8.09448133 36,10.0998164 36,15.055223 L36,20.944777 C36,25.9001836 35.4430463,27.9055187 34.3972038,29.8610742 C33.3513612,31.8166298 31.8166298,33.3513612 29.8610742,34.3972038 C27.9055187,35.4430463 25.9001836,36 20.944777,36 L15.055223,36 C10.0998164,36 8.09448133,35.4430463 6.13892578,34.3972038 C4.18337022,33.3513612 2.64863878,31.8166298 1.60279622,29.8610742 C0.556953667,27.9055187 2.32705376e-16,25.9001836 -3.74156905e-16,20.944777 L3.74156905e-16,15.055223 C-2.32705376e-16,10.0998164 0.556953667,8.09448133 1.60279622,6.13892578 C2.64863878,4.18337022 4.18337022,2.64863878 6.13892578,1.60279622 C8.09448133,0.556953667 10.0998164,3.49058064e-16 15.055223,-5.61235357e-16 Z" id="BGicon" fill="#C1C7CD"></path>
                <g id="Group-2" transform="translate(8.750000, 10.000000)" fill="#FFFFFF">
                    <path d="M15.0998437,0.170533166 C14.3112812,-0.22496427 13.3376562,0.0914399288 12.9294375,0.87171612 L7.19725,10.4999349 L1.5,10.4999349 C0.67284375,10.4999349 0,11.1727743 0,11.9999252 L0,14.499909 C0,15.3270599 0.67284375,15.9998993 1.5,15.9998993 L6.76415625,15.9998993 C7.71728125,15.9998993 8.57371875,15.4705902 9,14.6180645 L15.828375,2.3560815 C16.22975,1.5533367 15.9030625,0.572874307 15.0998437,0.170533166 Z M2.5,14.9999058 L1.5,14.9999058 C1.224125,14.9999058 1,14.7752822 1,14.499909 L1,11.9999285 C1,11.724552 1.224125,11.4999285 1.5,11.4999285 L2.5,11.4999285 L2.5,14.9999058 Z M14.9338437,1.90880315 L8.10546875,14.1708174 C7.849625,14.6825328 7.3359375,14.9999058 6.76415625,14.9999058 L3.5,14.9999058 L3.5,11.4999285 L7.5,11.4999285 C7.68603125,11.4999285 7.8564375,11.3964291 7.942875,11.2323677 L13.8151875,1.33555686 C13.973875,1.03577756 14.3503437,0.912715854 14.6525937,1.06505862 C14.9626562,1.22033886 15.089125,1.59924265 14.9338437,1.90880315 Z" id="Shape" transform="translate(8.000008, 7.999950) scale(-1, 1) translate(-8.000008, -7.999950) "></path>
                </g>
                <path d="M24,11 C22.0122031,11 20,11.5151406 20,12.5 L20,15 C20,15.9848594 22.0122031,16.5 24,16.5 C25.9877969,16.5 28,15.9848594 28,15 L28,12.5 C28,11.5151406 25.9877969,11 24,11 Z M24,11.5 C26.1364687,11.5 27.5,12.0922812 27.5,12.5 C27.5,12.9077188 26.1364687,13.5 24,13.5 C21.8635313,13.5 20.5,12.9077188 20.5,12.5 C20.5,12.0922812 21.8635313,11.5 24,11.5 Z M24,16 C21.8635313,16 20.5,15.4077188 20.5,15 L20.5,13.2640313 C21.2197031,13.7490781 22.6146875,14 24,14 C25.3853125,14 26.7802969,13.7490781 27.5,13.2640313 L27.5,15 C27.5,15.4077188 26.1364687,16 24,16 Z" id="Shape" stroke="#FFFFFF" stroke-width="0.5" fill="#FFFFFF"></path>
            </g>
        </g>
    </g>
</svg>