<?xml version="1.0" encoding="UTF-8"?>
<svg width="36px" height="36px" viewBox="0 0 36 36" version="1.1" xmlns="http://www.w3.org/2000/svg" xmlns:xlink="http://www.w3.org/1999/xlink">
    <title>icoGoals_active</title>
    <defs>
        <linearGradient x1="50%" y1="0%" x2="50%" y2="99.7677365%" id="linearGradient-1">
            <stop stop-color="#4985FF" offset="0%"></stop>
            <stop stop-color="#1D5CFF" offset="100%"></stop>
        </linearGradient>
    </defs>
    <g id="1.-HL---video---mobil" stroke="none" stroke-width="1" fill="none" fill-rule="evenodd">
        <g id="Komponenty" transform="translate(-69.000000, -370.000000)" fill-rule="nonzero">
            <g id="icoGoals_active" transform="translate(69.000000, 370.000000)">
                <path d="M15.055223,-5.61235357e-16 L20.944777,5.61235357e-16 C25.9001836,-3.49058064e-16 27.9055187,0.556953667 29.8610742,1.60279622 C31.8166298,2.64863878 33.3513612,4.18337022 34.3972038,6.13892578 C35.4430463,8.09448133 36,10.0998164 36,15.055223 L36,20.944777 C36,25.9001836 35.4430463,27.9055187 34.3972038,29.8610742 C33.3513612,31.8166298 31.8166298,33.3513612 29.8610742,34.3972038 C27.9055187,35.4430463 25.9001836,36 20.944777,36 L15.055223,36 C10.0998164,36 8.09448133,35.4430463 6.13892578,34.3972038 C4.18337022,33.3513612 2.64863878,31.8166298 1.60279622,29.8610742 C0.556953667,27.9055187 2.32705376e-16,25.9001836 -3.74156905e-16,20.944777 L3.74156905e-16,15.055223 C-2.32705376e-16,10.0998164 0.556953667,8.09448133 1.60279622,6.13892578 C2.64863878,4.18337022 4.18337022,2.64863878 6.13892578,1.60279622 C8.09448133,0.556953667 10.0998164,3.49058064e-16 15.055223,-5.61235357e-16 Z" id="BGicon" fill="url(#linearGradient-1)"></path>
                <path d="M18,21.25 C16.0122031,21.25 14,21.7651406 14,22.75 L14,25.25 C14,26.2348594 16.0122031,26.75 18,26.75 C19.9877969,26.75 22,26.2348594 22,25.25 L22,22.75 C22,21.7651406 19.9877969,21.25 18,21.25 Z M18,21.75 C20.1364687,21.75 21.5,22.3422812 21.5,22.75 C21.5,23.1577188 20.1364687,23.75 18,23.75 C15.8635313,23.75 14.5,23.1577188 14.5,22.75 C14.5,22.3422812 15.8635312,21.75 18,21.75 Z M18,26.25 C15.8635312,26.25 14.5,25.6577188 14.5,25.25 L14.5,23.5140313 C15.2197031,23.9990781 16.6146875,24.25 18,24.25 C19.3853125,24.25 20.7802969,23.9990781 21.5,23.5140313 L21.5,25.25 C21.5,25.6577188 20.1364687,26.25 18,26.25 Z" id="Shape" stroke="#FFFFFF" stroke-width="0.5" fill="#FFFFFF"></path>
                <path d="M24,9.5 C25.35731,9.5 26.4619829,10.5816677 26.4990396,11.9300238 L26.5,12 L26.5,23.5 C26.5,23.7761424 26.2761424,24 26,24 C25.7238576,24 25.5,23.7761424 25.5,23.5 L25.5,12 L25.5,12 C25.5,11.1904008 24.8586063,10.5306071 24.0562346,10.5010346 L24,10.5 L12,10.5 C11.1904008,10.5 10.5306071,11.1413937 10.5010346,11.9437654 L10.5,12 L10.5,23.5 C10.5,23.7761424 10.2761424,24 10,24 C9.72385763,24 9.5,23.7761424 9.5,23.5 L9.5,12 L9.5,12 C9.5,10.64269 10.5816677,9.53801707 11.9300238,9.50096045 L12,9.5 L24,9.5 Z" id="Path" fill="#FFFFFF"></path>
            </g>
        </g>
    </g>
</svg>