<?xml version="1.0" encoding="UTF-8"?>
<svg width="144px" height="144px" viewBox="0 0 144 144" version="1.1" xmlns="http://www.w3.org/2000/svg" xmlns:xlink="http://www.w3.org/1999/xlink">
    <title>icona-default</title>
    <defs>
        <linearGradient x1="50%" y1="0%" x2="50%" y2="99.7677365%" id="linearGradient-1">
            <stop stop-color="#4985FF" offset="0%"></stop>
            <stop stop-color="#1D5CFF" offset="100%"></stop>
        </linearGradient>
    </defs>
    <g id="Symbols" stroke="none" stroke-width="1" fill="none" fill-rule="evenodd">
        <g id="icona-default" fill-rule="nonzero">
            <g>
                <g id="Group" fill="url(#linearGradient-1)">
                    <path d="M60.2208919,-2.24494143e-15 L83.7791081,2.24494143e-15 C103.600734,-1.39623226e-15 111.622075,2.22781467 119.444297,6.41118489 C127.266519,10.5945551 133.405445,16.7334809 137.588815,24.5557031 C141.772185,32.3779253 144,40.3992656 144,60.2208919 L144,83.7791081 C144,103.600734 141.772185,111.622075 137.588815,119.444297 C133.405445,127.266519 127.266519,133.405445 119.444297,137.588815 C111.622075,141.772185 103.600734,144 83.7791081,144 L60.2208919,144 C40.3992656,144 32.3779253,141.772185 24.5557031,137.588815 C16.7334809,133.405445 10.5945551,127.266519 6.41118489,119.444297 C2.22781467,111.622075 9.30821504e-16,103.600734 -1.49662762e-15,83.7791081 L1.49662762e-15,60.2208919 C-9.30821504e-16,40.3992656 2.22781467,32.3779253 6.41118489,24.5557031 C10.5945551,16.7334809 16.7334809,10.5945551 24.5557031,6.41118489 C32.3779253,2.22781467 40.3992656,1.39623226e-15 60.2208919,-2.24494143e-15 Z" id="Rectangle"></path>
                </g>
                <g id="bullseye" transform="translate(40.000000, 40.000000)" fill="#FFFFFF">
                    <path d="M32,12.3870968 C21.1587097,12.3870968 12.3870968,21.1612903 12.3870968,32 C12.3870968,42.8412903 21.1612903,51.6129032 32,51.6129032 C42.8412903,51.6129032 51.6129032,42.8387097 51.6129032,32 C51.6129032,21.1587097 42.8387097,12.3870968 32,12.3870968 Z M32,45.4193548 C24.6,45.4193548 18.5806452,39.4 18.5806452,32 C18.5806452,24.6 24.6,18.5806452 32,18.5806452 C39.4,18.5806452 45.4193548,24.6 45.4193548,32 C45.4193548,39.4 39.4,45.4193548 32,45.4193548 Z M32,0 C14.3264516,0 0,14.3264516 0,32 C0,49.6735484 14.3264516,64 32,64 C49.6735484,64 64,49.6735484 64,32 C64,14.3264516 49.6735484,0 32,0 Z M32,57.8064516 C17.7703226,57.8064516 6.19354839,46.2296774 6.19354839,32 C6.19354839,17.7703226 17.7703226,6.19354839 32,6.19354839 C46.2296774,6.19354839 57.8064516,17.7703226 57.8064516,32 C57.8064516,46.2296774 46.2296774,57.8064516 32,57.8064516 Z M32,24.7741935 C28.0154839,24.7741935 24.7741935,28.0154839 24.7741935,32 C24.7741935,35.9845161 28.0154839,39.2258065 32,39.2258065 C35.9845161,39.2258065 39.2258065,35.9845161 39.2258065,32 C39.2258065,28.0154839 35.9845161,24.7741935 32,24.7741935 Z" id="Shape"></path>
                </g>
            </g>
        </g>
    </g>
</svg>