<svg height="19" viewBox="0 0 23 19" width="23" xmlns="http://www.w3.org/2000/svg"><g fill="#1d5cff" fill-rule="evenodd"><path d="m12 14c.5522847 0 1 .4477153 1 1s-.4477153 1-1 1h-11c-.55228475 0-1-.4477153-1-1s.44771525-1 1-1zm7-7c.5522847 0 1 .44771525 1 1s-.4477153 1-1 1h-18c-.55228475 0-1-.44771525-1-1s.44771525-1 1-1zm0-7c.5522847 0 1 .44771525 1 1s-.4477153 1-1 1h-18c-.55228475 0-1-.44771525-1-1s.44771525-1 1-1z"/><path d="m12 14c.5522847 0 1 .4477153 1 1s-.4477153 1-1 1h-11c-.55228475 0-1-.4477153-1-1s.44771525-1 1-1zm7-7c.5522847 0 1 .44771525 1 1s-.4477153 1-1 1h-18c-.55228475 0-1-.44771525-1-1s.44771525-1 1-1zm0-7c.5522847 0 1 .44771525 1 1s-.4477153 1-1 1h-18c-.55228475 0-1-.44771525-1-1s.44771525-1 1-1zm0 11c2.209139 0 4 1.790861 4 4s-1.790861 4-4 4-4-1.790861-4-4 1.790861-4 4-4zm1.6741464 2.0984241c-.3116026-.2026148-.7100474-.0823742-.8899513.2685649l-1.0940935 1.8994378-.7127584-.4774297c-.3116027-.2026148-.7100475-.0823742-.8899514.2685649-.1799038.3509391-.0731409.7996832.2384618 1.0022979l1.272183.841716c.1112866.0723624.2336501.1035443.353179.0977438l.086484-.0094843c.1851397-.0350124.3554834-.1594212.4566793-.3568244l1.4182293-2.532289c.1799038-.350939.0731409-.7996831-.2384618-1.0022979z"/></g></svg>