<svg height="36" viewBox="0 0 36 36" width="36" xmlns="http://www.w3.org/2000/svg" xmlns:xlink="http://www.w3.org/1999/xlink"><linearGradient id="a" x1="50%" x2="50%" y1="0%" y2="99.768%"><stop offset="0" stop-color="#4985ff"/><stop offset="1" stop-color="#1d5cff"/></linearGradient><g fill="none" fill-rule="evenodd"><path d="m15.055223 0h5.889554c4.9554066 0 6.9607417.55695367 8.9162972 1.60279622 1.9555556 1.04584256 3.490287 2.580574 4.5361296 4.53612956 1.0458425 1.95555555 1.6027962 3.96089062 1.6027962 8.91629722v5.889554c0 4.9554066-.5569537 6.9607417-1.6027962 8.9162972-1.0458426 1.9555556-2.580574 3.490287-4.5361296 4.5361296-1.9555555 1.0458425-3.9608906 1.6027962-8.9162972 1.6027962h-5.889554c-4.9554066 0-6.96074167-.5569537-8.91629722-1.6027962-1.95555556-1.0458426-3.490287-2.580574-4.53612956-4.5361296-1.04584255-1.9555555-1.60279622-3.9608906-1.60279622-8.9162972v-5.889554c0-4.9554066.55695367-6.96074167 1.60279622-8.91629722 1.04584256-1.95555556 2.580574-3.490287 4.53612956-4.53612956 1.95555555-1.04584255 3.96089062-1.60279622 8.91629722-1.60279622z" fill="url(#a)" fill-rule="nonzero"/><g fill="#fff" transform="translate(6 8)"><path d="m15.0998437 4.17053317c-.7885625-.39549744-1.7621875-.07909324-2.1704062.70118295l-5.7321875 9.62821878h-5.69725c-.82715625 0-1.5.6728394-1.5 1.4999903v2.4999838c0 .8271509.67284375 1.4999903 1.5 1.4999903h5.26415625c.953125 0 1.8095625-.5293091 2.23584375-1.3818348l6.828375-12.261983c.401375-.8027448.0746875-1.78320719-.7285313-2.18554833zm-12.5998437 14.82937263h-1c-.275875 0-.5-.2246236-.5-.4999968v-2.4999805c0-.2753765.224125-.5.5-.5h1zm12.4338437-13.09110265-6.82837495 12.26201425c-.25584375.5117154-.76953125.8290884-1.3413125.8290884h-3.26415625v-3.4999773h4c.18603125 0 .3564375-.1034994.442875-.2675608l5.8723125-9.89681084c.1586875-.2997793.5351562-.42284101.8374062-.27049824.3100625.15528024.4365313.53418403.28125.84374453z" fill-rule="nonzero" transform="matrix(-1 0 0 1 16 0)"/><path d="m18.25 0c3.3137085 0 6 2.6862915 6 6s-2.6862915 6-6 6-6-2.6862915-6-6 2.6862915-6 6-6zm.8059091 2.45454545h-1.2354546c-.0872727.34363637-.2577272.62863637-.5113636.855-.2536364.22636364-.5359091.34227273-.8468182.34772728l.0654546.98181818c.2672727.01090909.5018182-.07227273.7036363-.24954546.2018182-.17727272.3327273-.4240909.3927273-.74045454h.18v4.40181818h-1.2190909v.94909091h3.51v-.94909091h-1.0390909z"/></g></g></svg>