<?xml version="1.0" encoding="UTF-8"?>
<svg width="36px" height="36px" viewBox="0 0 36 36" version="1.1" xmlns="http://www.w3.org/2000/svg" xmlns:xlink="http://www.w3.org/1999/xlink">
    <title>icoPlusminus_active</title>
    <defs>
        <linearGradient x1="50%" y1="0%" x2="50%" y2="99.7677365%" id="linearGradient-1">
            <stop stop-color="#4985FF" offset="0%"></stop>
            <stop stop-color="#1D5CFF" offset="100%"></stop>
        </linearGradient>
    </defs>
    <g id="1.-HL---video---mobil" stroke="none" stroke-width="1" fill="none" fill-rule="evenodd">
        <g id="Komponenty" transform="translate(-69.000000, -514.000000)" fill-rule="nonzero">
            <g id="icoPlusminus_active" transform="translate(69.000000, 514.000000)">
                <path d="M15.055223,-5.61235357e-16 L20.944777,5.61235357e-16 C25.9001836,-3.49058064e-16 27.9055187,0.556953667 29.8610742,1.60279622 C31.8166298,2.64863878 33.3513612,4.18337022 34.3972038,6.13892578 C35.4430463,8.09448133 36,10.0998164 36,15.055223 L36,20.944777 C36,25.9001836 35.4430463,27.9055187 34.3972038,29.8610742 C33.3513612,31.8166298 31.8166298,33.3513612 29.8610742,34.3972038 C27.9055187,35.4430463 25.9001836,36 20.944777,36 L15.055223,36 C10.0998164,36 8.09448133,35.4430463 6.13892578,34.3972038 C4.18337022,33.3513612 2.64863878,31.8166298 1.60279622,29.8610742 C0.556953667,27.9055187 2.32705376e-16,25.9001836 -3.74156905e-16,20.944777 L3.74156905e-16,15.055223 C-2.32705376e-16,10.0998164 0.556953667,8.09448133 1.60279622,6.13892578 C2.64863878,4.18337022 4.18337022,2.64863878 6.13892578,1.60279622 C8.09448133,0.556953667 10.0998164,3.49058064e-16 15.055223,-5.61235357e-16 Z" id="BGicon" fill="url(#linearGradient-1)"></path>
                <g id="plus-minus" transform="translate(12.000000, 10.000000)" fill="#FFFFFF">
                    <path d="M0.5,6.5 L5.5,6.5 L5.5,11.5 C5.5,11.776375 5.723625,12 6,12 C6.276375,12 6.5,11.776375 6.5,11.5 L6.5,6.5 L11.5,6.5 C11.776375,6.5 12,6.276375 12,6 C12,5.723625 11.776375,5.5 11.5,5.5 L6.5,5.5 L6.5,0.5 C6.5,0.223625 6.276375,0 6,0 C5.723625,0 5.5,0.223625 5.5,0.5 L5.5,5.5 L0.5,5.5 C0.223625,5.5 0,5.723625 0,6 C0,6.276375 0.223625,6.5 0.5,6.5 Z M11.5,15 L0.5,15 C0.223625,15 0,15.223625 0,15.5 C0,15.776375 0.223625,16 0.5,16 L11.5,16 C11.776375,16 12,15.776375 12,15.5 C12,15.223625 11.776375,15 11.5,15 Z" id="Shape"></path>
                </g>
            </g>
        </g>
    </g>
</svg>