<?xml version="1.0" encoding="UTF-8"?>
<svg width="36px" height="36px" viewBox="0 0 36 36" version="1.1" xmlns="http://www.w3.org/2000/svg" xmlns:xlink="http://www.w3.org/1999/xlink">
    <title>icoPlaylist_active</title>
    <defs>
        <linearGradient x1="50%" y1="0%" x2="50%" y2="99.7677365%" id="linearGradient-1">
            <stop stop-color="#4985FF" offset="0%"></stop>
            <stop stop-color="#1D5CFF" offset="100%"></stop>
        </linearGradient>
    </defs>
    <g id="1.-HL---video---mobil" stroke="none" stroke-width="1" fill="none" fill-rule="evenodd">
        <g id="Komponenty" transform="translate(-69.000000, -226.000000)" fill-rule="nonzero">
            <g id="icoPlaylist_active" transform="translate(69.000000, 226.000000)">
                <path d="M15.055223,-5.61235357e-16 L20.944777,5.61235357e-16 C25.9001836,-3.49058064e-16 27.9055187,0.556953667 29.8610742,1.60279622 C31.8166298,2.64863878 33.3513612,4.18337022 34.3972038,6.13892578 C35.4430463,8.09448133 36,10.0998164 36,15.055223 L36,20.944777 C36,25.9001836 35.4430463,27.9055187 34.3972038,29.8610742 C33.3513612,31.8166298 31.8166298,33.3513612 29.8610742,34.3972038 C27.9055187,35.4430463 25.9001836,36 20.944777,36 L15.055223,36 C10.0998164,36 8.09448133,35.4430463 6.13892578,34.3972038 C4.18337022,33.3513612 2.64863878,31.8166298 1.60279622,29.8610742 C0.556953667,27.9055187 2.32705376e-16,25.9001836 -3.74156905e-16,20.944777 L3.74156905e-16,15.055223 C-2.32705376e-16,10.0998164 0.556953667,8.09448133 1.60279622,6.13892578 C2.64863878,4.18337022 4.18337022,2.64863878 6.13892578,1.60279622 C8.09448133,0.556953667 10.0998164,3.49058064e-16 15.055223,-5.61235357e-16 Z" id="BGicon" fill="url(#linearGradient-1)"></path>
                <g id="list-ol" transform="translate(9.000000, 10.000000)" fill="#FFFFFF">
                    <path d="M7.41406816,2.85713736 L17.6796878,2.85713736 C17.9933952,2.85713736 18.25,2.59995868 18.25,2.28570855 C18.25,1.97138699 17.9933952,1.71427974 17.6796878,1.71427974 L7.41406816,1.71427974 C7.10043209,1.71427974 6.84375595,1.97138699 6.84375595,2.28570855 C6.84375595,2.59995868 7.10043209,2.85713736 7.41406816,2.85713736 Z M1.14063393,6.85713903 L4.56250714,6.85713903 C4.87774721,6.85713903 5.13281935,6.6015675 5.13281935,6.28571022 C5.13281935,5.96992438 4.87774721,5.71435284 4.56250714,5.71435284 L3.42188274,5.71435284 L3.42188274,0.571707835 C3.42188274,0.36688632 3.3127036,0.178279099 3.13562166,0.0761719131 C2.95853972,-0.0259352725 2.74128641,-0.025399558 2.56416883,0.0778504852 L1.29657867,0.818350795 C1.02478926,0.977315147 0.932327397,1.32720815 1.09162272,1.60010112 C1.24977743,1.87242266 1.59955703,1.96224413 1.87134644,1.80599406 L2.28125833,1.56606539 L2.28125833,5.71435284 L1.14063393,5.71435284 C0.825393859,5.71435284 0.570321727,5.96992438 0.570321727,6.28571022 C0.570321727,6.6015675 0.825393859,6.85713903 1.14063393,6.85713903 Z M17.6796878,13.1428559 L7.41406816,13.1428559 C7.10043209,13.1428559 6.84375595,13.3999632 6.84375595,13.7142848 C6.84375595,14.0285349 7.10043209,14.2857136 7.41406816,14.2857136 L17.6796878,14.2857136 C17.9933952,14.2857136 18.25,14.0285349 18.25,13.7142848 C18.25,13.3999632 17.9933952,13.1428559 17.6796878,13.1428559 Z M5.13281935,14.8571424 L2.08289662,14.8571424 L4.27282419,12.9279987 C5.29432463,12.0457483 5.41687047,10.4910691 4.54803547,9.46206869 C4.1113189,8.94642562 3.49866102,8.63281835 2.82141528,8.5792469 C2.13304845,8.52121116 1.48467477,8.73938982 0.971179916,9.18303286 L0.479962887,9.60714018 C0.241572387,9.81306884 0.214839002,10.1741047 0.41979495,10.4129262 C0.625855878,10.6528906 0.987897192,10.6785692 1.22404209,10.473212 L1.71533041,10.0491047 C1.99603094,9.80692598 2.35023047,9.68581879 2.73119902,9.71874737 C3.1032208,9.74774739 3.43963371,9.91906889 3.67688358,10.2008904 C4.15141898,10.7622835 4.08679548,11.5797839 3.52428942,12.0658555 L0.193666162,14.9994282 C0.0154435984,15.1562496 -0.0469342987,15.4079283 0.0366164389,15.6300356 C0.120167177,15.8526785 0.332929273,16 0.570179149,16 L5.13281935,16 C5.44805942,16 5.70313155,15.7444285 5.70313155,15.4285712 C5.70313155,15.1127139 5.44805942,14.8571424 5.13281935,14.8571424 Z M17.6796878,7.42856784 L7.41406816,7.42856784 C7.10043209,7.42856784 6.84375595,7.68567509 6.84375595,7.99999665 C6.84375595,8.31424679 7.10043209,8.57142547 7.41406816,8.57142547 L17.6796878,8.57142547 C17.9933952,8.57142547 18.25,8.31424679 18.25,7.99999665 C18.25,7.68567509 17.9933952,7.42856784 17.6796878,7.42856784 Z" id="Shape"></path>
                </g>
            </g>
        </g>
    </g>
</svg>