<?xml version="1.0" encoding="UTF-8"?>
<svg width="36px" height="36px" viewBox="0 0 36 36" version="1.1" xmlns="http://www.w3.org/2000/svg" xmlns:xlink="http://www.w3.org/1999/xlink">
    <title>icoShifts_disabled</title>
    <g id="1.-HL---video---mobil" stroke="none" stroke-width="1" fill="none" fill-rule="evenodd">
        <g id="Komponenty" transform="translate(-113.000000, -418.000000)" fill-rule="nonzero">
            <g id="icoShifts_disabled" transform="translate(113.000000, 418.000000)">
                <path d="M15.055223,-5.61235357e-16 L20.944777,5.61235357e-16 C25.9001836,-3.49058064e-16 27.9055187,0.556953667 29.8610742,1.60279622 C31.8166298,2.64863878 33.3513612,4.18337022 34.3972038,6.13892578 C35.4430463,8.09448133 36,10.0998164 36,15.055223 L36,20.944777 C36,25.9001836 35.4430463,27.9055187 34.3972038,29.8610742 C33.3513612,31.8166298 31.8166298,33.3513612 29.8610742,34.3972038 C27.9055187,35.4430463 25.9001836,36 20.944777,36 L15.055223,36 C10.0998164,36 8.09448133,35.4430463 6.13892578,34.3972038 C4.18337022,33.3513612 2.64863878,31.8166298 1.60279622,29.8610742 C0.556953667,27.9055187 2.32705376e-16,25.9001836 -3.74156905e-16,20.944777 L3.74156905e-16,15.055223 C-2.32705376e-16,10.0998164 0.556953667,8.09448133 1.60279622,6.13892578 C2.64863878,4.18337022 4.18337022,2.64863878 6.13892578,1.60279622 C8.09448133,0.556953667 10.0998164,3.49058064e-16 15.055223,-5.61235357e-16 Z" id="BGicon" fill="#C1C7CD"></path>
                <g id="code-compare" transform="translate(10.000000, 10.000000)" fill="#FFFFFF">
                    <path d="M13.5,0.499921156 C12.1193125,0.499921156 11,1.61917685 11,2.99993387 C11,4.20940878 11.8589375,5.2178514 13,5.44954008 L13,10.9999746 C13,11.827135 12.3271562,12.4999822 11.5,12.4999822 L8.88115625,12.4999822 L10.8203125,10.8837552 C11.0322188,10.7070043 11.0610312,10.3915652 10.8842813,10.1796579 C10.7075313,9.96871932 10.3925625,9.93940667 10.1796875,10.1161888 L7.1796875,12.6162015 C7.06590625,12.7109208 7,12.8515465 7,12.9999847 C7,13.148423 7.06590625,13.2890487 7.1796875,13.3837679 L10.1796875,15.8837807 C10.2734375,15.9619061 10.3867188,16 10.4995,16 C10.6430625,16 10.7851562,15.9384684 10.8842813,15.8203116 C11.0610312,15.6084043 11.0322188,15.2929652 10.8203125,15.1162143 L8.88115625,13.4999873 L11.5,13.4999873 C12.8784062,13.4999873 14,12.3788878 14,10.9999746 L14,5.44954008 C15.141125,5.2178514 16,4.20940878 16,2.99993387 C16,1.61917685 14.88075,0.499921156 13.5,0.499921156 Z M13.5,4.4999415 C12.6729063,4.4999415 12,3.82709433 12,2.99992624 C12,2.17277342 12.6729063,1.49992624 13.5,1.49992624 C14.3270937,1.49992624 15,2.17277342 15,2.99992624 C15,3.82709433 14.3270937,4.4999415 13.5,4.4999415 Z M9,2.99993387 C9,2.85149562 8.93409375,2.7108699 8.8203125,2.61615067 L5.8203125,0.116137954 C5.6074375,-0.0616129502 5.29246875,-0.0313315462 5.11571875,0.179607027 C4.93896875,0.391514355 4.96778125,0.706953459 5.1796875,0.883704358 L7.11884375,2.49993133 L4.5,2.49993133 C3.12159375,2.49993133 2,3.62103078 2,4.99994405 L2,10.5503785 C0.8589375,10.7820672 0,11.7905098 0,12.9999847 C0,14.3807418 1.1193125,15.5 2.5,15.5 C3.88075,15.5 5,14.3807418 5,12.9999847 C5,11.7905098 4.141125,10.7820672 3,10.5503785 L3,4.99994405 C3,4.17278359 3.67284375,3.49993642 4.5,3.49993642 L7.11884375,3.49993642 L5.1796875,5.11616339 C4.96778125,5.29291429 4.93896875,5.60835339 5.11571875,5.82026072 C5.21484375,5.93841757 5.3569375,5.99994913 5.5005,5.99994913 C5.61328125,5.99994913 5.7265625,5.96185519 5.8203125,5.88372979 L8.8203125,3.38371708 C8.93409375,3.28899784 9,3.14837213 9,2.99993387 Z M4,12.9999771 C4,13.8271452 3.32709375,14.4999924 2.5,14.4999924 C1.67290625,14.4999924 1,13.8271452 1,12.9999771 C1,12.1728243 1.67290625,11.4999771 2.5,11.4999771 C3.32709375,11.4999771 4,12.1728243 4,12.9999771 Z" id="Shape"></path>
                </g>
            </g>
        </g>
    </g>
</svg>