<?xml version="1.0" encoding="UTF-8"?>
<svg width="36px" height="36px" viewBox="0 0 36 36" version="1.1" xmlns="http://www.w3.org/2000/svg" xmlns:xlink="http://www.w3.org/1999/xlink">
    <title>icoShots_disabled</title>
    <g id="1.-HL---video---mobil" stroke="none" stroke-width="1" fill="none" fill-rule="evenodd">
        <g id="Komponenty" transform="translate(-113.000000, -322.000000)" fill-rule="nonzero">
            <g id="icoShots_disabled" transform="translate(113.000000, 322.000000)">
                <path d="M15.055223,-5.61235357e-16 L20.944777,5.61235357e-16 C25.9001836,-3.49058064e-16 27.9055187,0.556953667 29.8610742,1.60279622 C31.8166298,2.64863878 33.3513612,4.18337022 34.3972038,6.13892578 C35.4430463,8.09448133 36,10.0998164 36,15.055223 L36,20.944777 C36,25.9001836 35.4430463,27.9055187 34.3972038,29.8610742 C33.3513612,31.8166298 31.8166298,33.3513612 29.8610742,34.3972038 C27.9055187,35.4430463 25.9001836,36 20.944777,36 L15.055223,36 C10.0998164,36 8.09448133,35.4430463 6.13892578,34.3972038 C4.18337022,33.3513612 2.64863878,31.8166298 1.60279622,29.8610742 C0.556953667,27.9055187 2.32705376e-16,25.9001836 -3.74156905e-16,20.944777 L3.74156905e-16,15.055223 C-2.32705376e-16,10.0998164 0.556953667,8.09448133 1.60279622,6.13892578 C2.64863878,4.18337022 4.18337022,2.64863878 6.13892578,1.60279622 C8.09448133,0.556953667 10.0998164,3.49058064e-16 15.055223,-5.61235357e-16 Z" id="BGicon" fill="#C1C7CD"></path>
                <g id="bullseye-arrow" transform="translate(10.000000, 10.000000)" fill="#FFFFFF">
                    <path d="M14.8221858,6.71475813 C14.5399279,6.75508078 14.3438635,7.01617801 14.3837022,7.29843656 C14.429057,7.6159855 14.4517344,7.93905057 14.4517344,8.25811564 C14.4517344,11.9577349 11.4416392,14.9677401 7.74199597,14.9677401 C4.042385,14.9677401 1.03225753,11.9577349 1.03225753,8.25811564 C1.03225753,4.55849634 4.042385,1.54849113 7.74199597,1.54849113 C8.06106033,1.54849113 8.38412467,1.57116859 8.7016729,1.6165235 C8.98393081,1.65887842 9.24551132,1.46029743 9.28535001,1.17803887 C9.3251887,0.895780322 9.12909203,0.634683096 8.84683411,0.594360446 C8.48141495,0.542424872 8.1094474,0.516231278 7.74199597,0.516231278 C3.4728369,0.516231278 0,3.98894696 0,8.25811564 C0,12.5272843 3.4728369,16 7.74199597,16 C12.0112196,16 15.4839919,12.5272843 15.4839919,8.25811564 C15.4839919,7.89066339 15.4577662,7.51869501 15.405863,7.15327502 C15.3650243,6.87101647 15.1014438,6.67343548 14.8221858,6.71475813 Z M6.96780283,6.91637138 C7.21477044,6.77372597 7.29896395,6.45772543 7.15580273,6.21124113 C7.01315764,5.96427296 6.69664168,5.88107927 6.45067407,6.02324081 C5.65528738,6.48391902 5.16135216,7.34027534 5.16135216,8.25811564 C5.16135216,9.68098907 6.31912575,10.8387653 7.74199597,10.8387653 C8.65983421,10.8387653 9.5161886,10.3448289 9.97686578,9.54944045 C10.120027,9.30298841 10.0358335,8.98695561 9.78886588,8.8443102 C9.54238214,8.70066479 9.22686617,8.78534236 9.08373721,9.03231053 C8.80702768,9.50963393 8.29289891,9.80650541 7.74199597,9.80650541 C6.88815771,9.80650541 6.19360968,9.11195583 6.19360968,8.25811564 C6.19360968,7.70721146 6.4904805,7.19308154 6.96780283,6.91637138 Z M8.25812474,3.61294631 C8.25812474,3.3276555 8.02728615,3.09681639 7.74199597,3.09681639 C4.89622326,3.09681639 2.58070834,5.41233652 2.58070834,8.25811564 C2.58070834,11.1038948 4.89622326,13.4193504 7.74199597,13.4193504 C10.5877687,13.4193504 12.9033481,11.1038948 12.9033481,8.25811564 C12.9033481,7.97282482 12.6725095,7.74198571 12.3872194,7.74198571 C12.1019292,7.74198571 11.8710906,7.97282482 11.8710906,8.25811564 C11.8710906,10.5348293 10.0187045,12.387155 7.74199597,12.387155 C5.46528748,12.387155 3.61296586,10.5348293 3.61296586,8.25811564 C3.61296586,5.98140202 5.46528748,4.12907624 7.74199597,4.12907624 C8.02728615,4.12907624 8.25812474,3.89823713 8.25812474,3.61294631 Z M15.9779272,3.46323638 C15.9229917,3.28130058 15.7717983,3.14420357 15.5853145,3.10691318 L13.341864,2.65836402 L12.8932514,0.414908522 C12.8559611,0.228424329 12.7188644,0.077230519 12.536929,0.022262682 C12.3539613,-0.0331567688 12.1573808,0.0167465434 12.0222841,0.151295163 L9.9577045,2.21581486 C9.83573682,2.33781507 9.78283362,2.5127186 9.81657554,2.68207373 L10.278543,4.99172289 L7.37706068,7.89321178 C7.17544788,8.09482503 7.17544788,8.4214385 7.37706068,8.62305175 C7.57857671,8.82453597 7.90518944,8.82476178 8.10689901,8.62305175 L11.0084459,5.72156286 L13.3181544,6.18353141 C13.3519285,6.1900798 13.3857027,6.19359594 13.4194769,6.19359594 C13.5550575,6.19359594 13.6866058,6.14017649 13.7843799,6.04236987 L15.848895,3.97785017 C15.9834756,3.84330155 16.0328949,3.64572056 15.9779272,3.46323638 Z M10.8831879,2.75062224 L12.0701873,1.56310406 L12.3431226,2.92726771 L11.1558007,4.11452783 L10.8831879,2.75062224 Z M13.249606,5.11698117 L11.885639,4.8443678 L13.0729609,3.65704316 L14.4371215,3.92997912 L13.249606,5.11698117 Z" id="Shape"></path>
                </g>
            </g>
        </g>
    </g>
</svg>