<svg height="36" viewBox="0 0 36 36" width="36" xmlns="http://www.w3.org/2000/svg" xmlns:xlink="http://www.w3.org/1999/xlink"><linearGradient id="a" x1="50%" x2="50%" y1="0%" y2="99.768%"><stop offset="0" stop-color="#4985ff"/><stop offset="1" stop-color="#1d5cff"/></linearGradient><g fill="none" fill-rule="evenodd"><path d="m15.055223 0h5.889554c4.9554066 0 6.9607417.55695367 8.9162972 1.60279622 1.9555556 1.04584256 3.490287 2.580574 4.5361296 4.53612956 1.0458425 1.95555555 1.6027962 3.96089062 1.6027962 8.91629722v5.889554c0 4.9554066-.5569537 6.9607417-1.6027962 8.9162972-1.0458426 1.9555556-2.580574 3.490287-4.5361296 4.5361296-1.9555555 1.0458425-3.9608906 1.6027962-8.9162972 1.6027962h-5.889554c-4.9554066 0-6.96074167-.5569537-8.91629722-1.6027962-1.95555556-1.0458426-3.490287-2.580574-4.53612956-4.5361296-1.04584255-1.9555555-1.60279622-3.9608906-1.60279622-8.9162972v-5.889554c0-4.9554066.55695367-6.96074167 1.60279622-8.91629722 1.04584256-1.95555556 2.580574-3.490287 4.53612956-4.53612956 1.95555555-1.04584255 3.96089062-1.60279622 8.91629722-1.60279622z" fill="url(#a)" fill-rule="nonzero"/><g fill="#fff" transform="translate(1.49 7.5)"><path d="m16.5104076 13.75c-1.9877968 0-4 .5151406-4 1.5v2.5c0 .9848594 2.0122032 1.5 4 1.5 1.9877969 0 4-.5151406 4-1.5v-2.5c0-.9848594-2.0122031-1.5-4-1.5zm0 .5c2.1364688 0 3.5.5922812 3.5 1s-1.3635312 1-3.5 1c-2.1364687 0-3.5-.5922812-3.5-1s1.3635313-1 3.5-1zm0 4.5c-2.1364687 0-3.5-.5922812-3.5-1v-1.7359687c.7197032.4850468 2.1146875.7359687 3.5.7359687s2.7802969-.2509219 3.5-.7359687v1.7359687c0 .4077188-1.3635312 1-3.5 1z" fill-rule="nonzero" stroke="#fff" stroke-width=".5"/><path d="m22.5104076 0c1.35731 0 2.461983 1.0816677 2.4990396 2.43002379l.0009604.06997621v11.5c0 .2761424-.2238576.5-.5.5-.2761423 0-.5-.2238576-.5-.5v-11.5c0-.80959924-.6413937-1.46939294-1.4437654-1.49896538l-.0562346-.00103462h-12c-.8095992 0-1.4693929.64139372-1.49896534 1.44376543l-.00103462.05623457v11.5c0 .2761424-.22385762.5-.5.5-.27614237 0-.5-.2238576-.5-.5v-11.5c0-1.35730998 1.0816677-2.46198293 2.43002376-2.49903955l.0699762-.00096045z" fill-rule="nonzero"/><path d="m13.6819805 3.46446609 2.8284466 2.82855339 2.8284077-2.82855339c.1735663-.17356635.4429907-.1928515.6378589-.05785545l.0692478.05785545c.1952622.19526215.1952622.51184464 0 .70710679l-2.8285144 2.8284466 2.8285144 2.82840764c.1952622.19526218.1952622.51184468 0 .70710678-.1952621.1952622-.5118446.1952622-.7071067 0l-2.8284077-2.82851442-2.8284466 2.82851442c-.1735663.1735664-.4429907.1928515-.6378589.0578555l-.0692479-.0578555c-.1952621-.1952621-.1952621-.5118446 0-.70710678l2.8285534-2.82840764-2.8285534-2.8284466c-.1952621-.19526215-.1952621-.51184464 0-.70710679.1952622-.19526214.5118447-.19526214.7071068 0z"/><rect height="5" rx=".5" transform="matrix(.70710678 .70710678 -.70710678 .70710678 14.695132 .814813)" width="1" x="5.864" y="15.646"/><rect height="5" rx=".5" transform="matrix(-.70710678 .70710678 .70710678 .70710678 32.174773 -13.327227)" width="1" x="25.864" y="15.646"/><rect height="11" rx=".5" transform="matrix(.70710678 .70710678 -.70710678 .70710678 15.574386 2.936106)" width="1" x="3.743" y="14.768"/><rect height="11" rx=".5" transform="matrix(-.70710678 .70710678 .70710678 .70710678 34.296093 -14.205907)" width="1" x="27.985" y="14.768"/></g></g></svg>