<?xml version="1.0" encoding="UTF-8"?>
<svg width="32px" height="32px" viewBox="0 0 32 32" version="1.1" xmlns="http://www.w3.org/2000/svg" xmlns:xlink="http://www.w3.org/1999/xlink">
    <title>icoTrash</title>
    <g id="1.-HL---video---mobil" stroke="none" stroke-width="1" fill="none" fill-rule="evenodd">
        <g id="VL---playlist" transform="translate(-100.000000, -405.000000)" fill-rule="nonzero">
            <g id="Group-2" transform="translate(0.000000, 341.000000)">
                <g id="icoTrash" transform="translate(100.000000, 64.000000)">
                    <rect id="Rectangle" stroke="#D91E28" stroke-width="2" x="1" y="1" width="30" height="30" rx="8"></rect>
                    <g id="trash-can" transform="translate(8.000000, 7.000000)" fill="#D91E28">
                        <path d="M15.4285714,2.8125 L12.4866071,2.8125 L11.2723214,0.817382812 C10.9637143,0.310324219 10.4073214,0 9.80685714,0 L6.19314286,0 C5.59267857,0 5.03628571,0.310324219 4.72767857,0.817382812 L3.51339286,2.8125 L0.571428571,2.8125 C0.254464286,2.8125 0,3.06298828 0,3.375 L0,3.9375 C0,4.24951172 0.254464286,4.5 0.571428571,4.5 L1.14285714,4.5 L1.14285714,15.75 C1.14285714,16.9926328 2.16621429,18 3.42857143,18 L12.5714286,18 C13.8337857,18 14.8571429,16.9926328 14.8571429,15.75 L14.8571429,4.5 L15.4285714,4.5 C15.7455357,4.5 16,4.24951172 16,3.9375 L16,3.375 C16,3.06298828 15.7455357,2.8125 15.4285714,2.8125 Z M6.13839286,1.78857422 C6.17410714,1.72705078 6.24553571,1.6875 6.32142857,1.6875 L9.67857143,1.6875 C9.75446429,1.6875 9.82589286,1.72705078 9.86160714,1.78857422 L10.4866071,2.8125 L5.51339286,2.8125 L6.13839286,1.78857422 Z M12.5714286,16.3125 L3.42857143,16.3125 C3.11296429,16.3125 2.85714286,16.0606758 2.85714286,15.75 L2.85714286,4.5 L13.1428571,4.5 L13.1428571,15.75 C13.1428571,16.0606758 12.8870357,16.3125 12.5714286,16.3125 Z M8,14.625 C8.31585714,14.625 8.57142857,14.3734219 8.57142857,14.0625 L8.57142857,6.75 C8.57142857,6.43907812 8.31585714,6.1875 8,6.1875 C7.68414286,6.1875 7.42857143,6.43907812 7.42857143,6.75 L7.42857143,14.0625 C7.42857143,14.3734219 7.68414286,14.625 8,14.625 Z M5.14285714,14.625 C5.45871429,14.625 5.71428571,14.3734219 5.71428571,14.0625 L5.71428571,6.75 C5.71428571,6.43907812 5.45871429,6.1875 5.14285714,6.1875 C4.827,6.1875 4.57142857,6.43907812 4.57142857,6.75 L4.57142857,14.0625 C4.57142857,14.3734219 4.827,14.625 5.14285714,14.625 Z M10.8571429,14.625 C11.173,14.625 11.4285714,14.3734219 11.4285714,14.0625 L11.4285714,6.75 C11.4285714,6.43907812 11.173,6.1875 10.8571429,6.1875 C10.5412857,6.1875 10.2857143,6.43907812 10.2857143,6.75 L10.2857143,14.0625 C10.2857143,14.3734219 10.5412857,14.625 10.8571429,14.625 Z" id="Shape"></path>
                    </g>
                </g>
            </g>
        </g>
    </g>
</svg>