<?xml version="1.0" encoding="UTF-8"?>
<svg width="64px" height="64px" viewBox="0 0 64 64" version="1.1" xmlns="http://www.w3.org/2000/svg" xmlns:xlink="http://www.w3.org/1999/xlink">
    <title>negative_big</title>
    <g id="1.-HL---video---mobil" stroke="none" stroke-width="1" fill="none" fill-rule="evenodd">
        <g id="Komponenty" transform="translate(-412.000000, -402.000000)" fill-rule="nonzero">
            <g id="negative_big" transform="translate(412.000000, 402.000000)">
                <circle id="Oval" stroke="#D91E28" stroke-width="4" cx="32" cy="32" r="30"></circle>
                <g id="thumbs-down" transform="translate(16.000000, 20.000000)" fill="#D91E28">
                    <path d="M6,0 L2,0 C0.895375,0 0,0.895375 0,2 L0,16 C0,17.1045 0.895375,18 2,18 L6,18 C7.104625,18 8,17.1045 8,16 L8,2 C8,0.895375 7.104625,0 6,0 Z M29.2046875,13.0149375 C29.6941875,12.481375 30,11.7764375 30,10.9951875 C30,9.5283125 28.9456875,8.312375 27.5538125,8.05225 C27.8314375,7.597625 28,7.0689375 28,6.4971875 C28,5.164375 27.125,4.04825 25.922125,3.6578125 C25.97,3.445125 26,3.225875 26,2.9986875 C26,1.3421875 24.65725,0 23,0 L19.3318125,0 C17.168875,0 15.0641875,0.7013125 13.3335,1.99875 L11.199875,3.5983125 C10.4445625,4.1645 10,5.053375 10,5.997375 L10,15.993 C10,15.993 10.0119375,16.0049375 10.0134375,16.0064375 C10.0178125,16.8810625 10.389375,17.74625 11.126,18.33475 L12.1445,19.148875 C17.261,23.24075 14.9631875,28 18.90875,28 C20.8434375,28 22.0003125,26.4673125 22.0003125,24.993125 C22.0003125,24.0464375 21.265625,21.360875 19.842625,18.9916875 L29,18.9916875 C30.65725,18.9916875 32,17.6495 32,15.993 C32,14.4065625 30.764625,13.1218125 29.2046875,13.0149375 Z" id="Shape"></path>
                </g>
            </g>
        </g>
    </g>
</svg>