<?xml version="1.0" encoding="UTF-8"?>
<svg width="64px" height="64px" viewBox="0 0 64 64" version="1.1" xmlns="http://www.w3.org/2000/svg" xmlns:xlink="http://www.w3.org/1999/xlink">
    <title>neutral_big</title>
    <g id="1.-HL---video---mobil" stroke="none" stroke-width="1" fill="none" fill-rule="evenodd">
        <g id="Komponenty" transform="translate(-484.000000, -402.000000)" fill-rule="nonzero">
            <g id="neutral_big" transform="translate(484.000000, 402.000000)">
                <g id="Group-4" stroke="#697077" stroke-width="4">
                    <circle id="Oval" cx="32" cy="32" r="30"></circle>
                </g>
                <g id="info" transform="translate(26.000000, 16.000000)" fill="#697077">
                    <path d="M6,8.25806452 C8.209125,8.25806452 10,6.40941935 10,4.12903226 C10,1.84851613 8.209125,0 6,0 C3.790875,0 2,1.84851613 2,4.12903226 C2,6.40941935 3.790875,8.25806452 6,8.25806452 Z M9.027375,25.8208387 L9.027375,14.484129 C9.027375,12.7916774 7.703,11.4152258 6.0555625,11.3930323 L3.0465,11.3548387 L3.0083125,11.3548387 C1.363625,11.3548387 0.02075,12.7132258 0.00025,14.4076129 C-0.020375,16.1141935 1.3108125,17.5147742 2.9720625,17.5369032 L3.0028125,25.8179355 L3,25.8179355 C1.34275,25.8179355 0,27.2023871 0,28.9089032 C0,30.6154194 1.34275,32 3,32 L9,32 C10.65725,32 12,30.6154194 12,28.9089032 C12,27.2120645 10.6715,25.8363226 9.027375,25.8208387 Z" id="Shape"></path>
                </g>
            </g>
        </g>
    </g>
</svg>