<?xml version="1.0" encoding="UTF-8"?>
<svg width="32px" height="32px" viewBox="0 0 32 32" version="1.1" xmlns="http://www.w3.org/2000/svg" xmlns:xlink="http://www.w3.org/1999/xlink">
    <title>next_active</title>
    <defs>
        <linearGradient x1="50%" y1="0%" x2="50%" y2="99.7677365%" id="linearGradient-1">
            <stop stop-color="#4985FF" offset="0%"></stop>
            <stop stop-color="#1D5CFF" offset="100%"></stop>
        </linearGradient>
    </defs>
    <g id="1.-HL---video---mobil" stroke="none" stroke-width="1" fill="none" fill-rule="evenodd">
        <g id="Komponenty" transform="translate(-589.000000, -290.000000)" fill="url(#linearGradient-1)" fill-rule="nonzero">
            <g id="next_active" transform="translate(589.000000, 290.000000)">
                <path d="M24,0 C28.418278,-8.11624501e-16 32,3.581722 32,8 L32,24 C32,28.418278 28.418278,32 24,32 L8,32 C3.581722,32 5.41083001e-16,28.418278 0,24 L0,8 C-5.41083001e-16,3.581722 3.581722,8.11624501e-16 8,0 L24,0 Z M15.9991072,10.7224557 L16,14 L8.8,14 C8.3581722,14 8,14.3581722 8,14.8 L8,17.2 C8,17.6418278 8.3581722,18 8.8,18 L16,18 L15.9991072,21.2775443 C15.9991072,21.9199758 16.920433,22.2411915 17.4632296,21.7878871 L23.7482424,16.5103427 C24.0839192,16.2281532 24.0839192,15.7718468 23.7482424,15.4896573 L17.4632296,10.2121129 C16.924004,9.75880847 15.9991072,10.0800242 15.9991072,10.7224557 Z" id="Combined-Shape"></path>
            </g>
        </g>
    </g>
</svg>