<?xml version="1.0" encoding="UTF-8"?>
<svg width="64px" height="64px" viewBox="0 0 64 64" version="1.1" xmlns="http://www.w3.org/2000/svg" xmlns:xlink="http://www.w3.org/1999/xlink">
    <title>positive_big</title>
    <g id="1.-HL---video---mobil" stroke="none" stroke-width="1" fill="none" fill-rule="evenodd">
        <g id="Komponenty" transform="translate(-556.000000, -402.000000)" fill-rule="nonzero">
            <g id="positive_big" transform="translate(556.000000, 402.000000)">
                <circle id="Oval" stroke="#24A248" stroke-width="4" cx="32" cy="32" r="30"></circle>
                <g id="thumbs-up" transform="translate(16.000000, 16.000000)" fill="#24A248">
                    <path d="M8,26 L8,12 C8,10.8955 7.104625,10 6,10 L2,10 C0.895375,10 0,10.8955 0,12 L0,26 C0,27.104625 0.895375,28 2,28 L6,28 C7.104625,28 8,27.104625 8,26 Z M32,12.007 C32,10.3505 30.65725,9.0083125 29,9.0083125 L19.842625,9.0083125 C21.265625,6.639125 22.0003125,3.9535625 22.0003125,3.006875 C22.0003125,1.5326875 20.8434375,0 18.90875,0 C14.9631875,0 17.261,4.75925 12.1445,8.851125 L11.126,9.66525 C10.389375,10.25375 10.0178125,11.1189375 10.0134375,11.9935625 C10.0119375,11.9950625 10,12.007 10,12.007 L10,22.002625 C10,22.946625 10.4445625,23.8355 11.199875,24.4016875 L13.3335,26.00125 C15.0641875,27.2986875 17.168875,28 19.3318125,28 L23,28 C24.65725,28 26,26.6578125 26,25.0013125 C26,24.774125 25.97,24.554875 25.922125,24.3421875 C27.125,23.95175 28,22.835625 28,21.5028125 C28,20.9310625 27.8314375,20.402375 27.5538125,19.94775 C28.9456875,19.687625 30,18.4716875 30,17.0048125 C30,16.2235625 29.6941875,15.518625 29.2046875,14.9850625 C30.764625,14.8781875 32,13.5934375 32,12.007 Z" id="Shape"></path>
                </g>
            </g>
        </g>
    </g>
</svg>