<?xml version="1.0" encoding="UTF-8"?>
<svg width="36px" height="36px" viewBox="0 0 36 36" version="1.1" xmlns="http://www.w3.org/2000/svg" xmlns:xlink="http://www.w3.org/1999/xlink">
    <title>icoApplogo</title>
    <defs>
        <linearGradient x1="50%" y1="0%" x2="50%" y2="99.7677365%" id="linearGradient-1">
            <stop stop-color="#4985FF" offset="0%"></stop>
            <stop stop-color="#1D5CFF" offset="100%"></stop>
        </linearGradient>
    </defs>
    <g id="1.-HL---video---mobil" stroke="none" stroke-width="1" fill="none" fill-rule="evenodd">
        <g id="Komponenty" transform="translate(-69.000000, -84.000000)" fill-rule="nonzero">
            <g id="icoApplogo" transform="translate(69.000000, 84.000000)">
                <path d="M15.055223,-5.61235357e-16 L20.944777,5.61235357e-16 C25.9001836,-3.49058064e-16 27.9055187,0.556953667 29.8610742,1.60279622 C31.8166298,2.64863878 33.3513612,4.18337022 34.3972038,6.13892578 C35.4430463,8.09448133 36,10.0998164 36,15.055223 L36,20.944777 C36,25.9001836 35.4430463,27.9055187 34.3972038,29.8610742 C33.3513612,31.8166298 31.8166298,33.3513612 29.8610742,34.3972038 C27.9055187,35.4430463 25.9001836,36 20.944777,36 L15.055223,36 C10.0998164,36 8.09448133,35.4430463 6.13892578,34.3972038 C4.18337022,33.3513612 2.64863878,31.8166298 1.60279622,29.8610742 C0.556953667,27.9055187 2.32705376e-16,25.9001836 -3.74156905e-16,20.944777 L3.74156905e-16,15.055223 C-2.32705376e-16,10.0998164 0.556953667,8.09448133 1.60279622,6.13892578 C2.64863878,4.18337022 4.18337022,2.64863878 6.13892578,1.60279622 C8.09448133,0.556953667 10.0998164,3.49058064e-16 15.055223,-5.61235357e-16 Z" id="Rectangle" fill="url(#linearGradient-1)"></path>
                <path d="M11.2577888,23.623052 L11.25,19.125 L11.25,19.125 L14.625,19.125 L14.6172112,23.623052 C14.6161353,24.2443714 15.118942,24.7489224 15.7402614,24.7499983 C15.7409108,24.7499994 15.7415601,24.75 15.7422095,24.75 L16.875,24.75 C17.4963203,24.75 18,24.2463203 18,23.625 L18,12.375 C18,11.7536797 17.4963203,11.25 16.875,11.25 L15.7426974,11.25 C15.1213771,11.25 14.6176974,11.7536797 14.6176974,12.375 C14.6176974,12.3758117 14.6176983,12.3766234 14.6177001,12.3774351 L14.625,15.75 L14.625,15.75 L11.25,15.75 L11.2572999,12.3774351 C11.2586448,11.7561162 10.7560565,11.2513475 10.1347376,11.2500026 C10.1339259,11.2500009 10.1331142,11.25 10.1323026,11.25 L9,11.25 C8.37867966,11.25 7.875,11.7536797 7.875,12.375 L7.875,23.625 C7.875,24.2463203 8.37867966,24.75 9,24.75 L10.1327905,24.75 C10.7541109,24.75 11.2577905,24.2463203 11.2577905,23.625 C11.2577905,23.6243506 11.25779,23.6237013 11.2577888,23.623052 Z M28.125,23.625 L28.125,22.5 C28.125,21.8786797 27.6213203,21.375 27,21.375 L24.75,21.375 C24.1286797,21.375 23.625,20.8713203 23.625,20.25 L23.625,12.375 C23.625,11.7536797 23.1213203,11.25 22.5,11.25 L21.375,11.25 C20.7536797,11.25 20.25,11.7536797 20.25,12.375 L20.25,23.625 C20.25,24.2463203 20.7536797,24.75 21.375,24.75 L27,24.75 C27.6213203,24.75 28.125,24.2463203 28.125,23.625 Z" id="Combined-Shape" fill="#FFFFFF"></path>
            </g>
        </g>
    </g>
</svg>